<svg id="Calque_1" data-name="Calque 1" xmlns="http://www.w3.org/2000/svg" xmlns:xlink="http://www.w3.org/1999/xlink" viewBox="0 0 391.48 85.75"><defs><style>.cls-1{fill:none;}.cls-2{clip-path:url(#clip-path);}.cls-3{fill:#1d1d1b;}.cls-4{fill:#00a4cb;}</style><clipPath id="clip-path"><rect class="cls-1" x="-102.01" y="-166.82" width="595.28" height="419.53"/></clipPath></defs><title>Plan de travail 1</title><g class="cls-2"><path class="cls-3" d="M373.4,33.28,387.91,17H379.4L364.15,35.36V.13h-6.66V55.78h6.66V43.64L369,38.09l13.17,17.69h8.44ZM332.63,16c-6,0-9.77,2.37-13.62,6.88h-.22l-1-5.92h-4.59V55.78h6.51V29.36c3.18-4.81,7.1-7.18,11.84-7.18s7.33,2.37,7.33,8.66V55.78h6.66V28.92c0-8.36-4.81-12.88-12.88-12.88M303.55,51.12c-1.7.07-2.52-1-2.52-3.11V29.88C301,20.41,296.52,16,286.45,16a23.29,23.29,0,0,0-15.1,5.11l2.81,4.29a17.64,17.64,0,0,1,11.25-3.77c5.92,0,9,2.15,9,8.29v5a58.18,58.18,0,0,0-9.62-.81q-15.32,0-15.32,11.32c0,7.47,5.25,11.32,13.25,11.32,5.25,0,9.47-1.63,12.51-5a5.52,5.52,0,0,0,5.92,4.51,7.15,7.15,0,0,0,3.77-.81L305.4,51Zm-20,.3c-4.44,0-7.7-1.85-7.7-6.29q0-6.22,9.32-6.22a40.35,40.35,0,0,1,9.25,1v6.22c-2.29,3.48-6.36,5.33-10.88,5.33m-28.42,5.33a15.77,15.77,0,0,0,8-2.15l-1.78-5a13.5,13.5,0,0,1-5.11,1.26c-2.15,0-3.18-1.26-3.18-3.7V22.7h9.55V17h-9.55V7H249.6l-3.18,4.29V17H240v5.7h6.44v25.6c0,5.62,2.89,8.44,8.73,8.44"/><path class="cls-4" d="M233.62,33.73a18.54,18.54,0,0,0-4.44-12.58c-2.89-3.4-7.1-5.11-12.51-5.11s-10,1.85-13.32,5.55-5,8.66-5,15,1.78,11.47,5.33,14.95A18.25,18.25,0,0,0,217,56.74c6.44,0,11.84-1.85,16.13-5.48L230,47a18.17,18.17,0,0,1-12.14,4.29c-7.77,0-12.06-4.37-12.8-13h28.19a32.71,32.71,0,0,0,.37-4.51m-28.56-.44c.67-7.7,5.11-11.91,11.84-11.91s10.29,4.51,10.58,11.91ZM190.84,16c-4.51,0-7.62,2.22-9.47,6.66h-.22L180,17h-5V55.78h6.59V30.62c1.7-5.55,4.59-8.29,8.51-8.29a12.05,12.05,0,0,1,3.92.74L195.06,17a7.42,7.42,0,0,0-4.22-1M156.36,43.87c-3.7,4.51-7.55,6.81-11.54,6.81-4.81,0-7.18-3.11-7.18-9.32V17h-6.59V42.9c0,9.25,5,13.76,12.58,13.76,5.18,0,9.55-2.22,13.1-6.59l1.41,5.7h4.81V17h-6.59Zm-42,12.88a15.77,15.77,0,0,0,8-2.15l-1.78-5a13.5,13.5,0,0,1-5.11,1.26c-2.15,0-3.18-1.26-3.18-3.7V22.7h9.55V17h-9.55V7h-3.48l-3.18,4.29V17H99.23v5.7h6.44v25.6c0,5.62,2.89,8.44,8.73,8.44M80,16a18.3,18.3,0,0,0-13.47,5.4C62.9,25,61,29.88,61,36.17s1.78,11.54,5.4,15.17a18.62,18.62,0,0,0,13.76,5.4c5.85,0,10.66-1.78,14.36-5.4L91.39,46.9a16.86,16.86,0,0,1-10.8,4A12,12,0,0,1,71.41,47c-2.44-2.66-3.55-6.29-3.55-10.8,0-9.1,5.18-14.36,12.58-14.36a16.43,16.43,0,0,1,10.21,3.63l3.11-4.74Q88.32,16,80,16m-32.41-14a4.13,4.13,0,0,0-4.37,4.29,4.08,4.08,0,0,0,4.37,4.22C50,10.57,52,9.09,52,6.35a4.15,4.15,0,0,0-4.44-4.29M44.4,55.78h6.51V17H44.4Zm-26-39.66c-5,0-9,2.15-12.28,6.51H6L4.66,17H0V71H6.66V54.23a17.43,17.43,0,0,0,9.77,2.52A16.23,16.23,0,0,0,29,50.9c3.48-3.92,5.25-9.1,5.25-15.47s-1.48-11-4.51-14.36a14.44,14.44,0,0,0-11.32-5M17.09,22c5.85,0,10.36,4.59,10.36,13.84,0,4.66-1.26,8.44-3.7,11.17a11,11,0,0,1-8.51,4.07,13.59,13.59,0,0,1-8.58-2.81v-19C9.55,24.48,13,22,17.09,22"/><path class="cls-3" d="M391.26,85.45V83.66h-8.41V78.31h7.38V76.47h-7.38V71.76h8.41V70H380.91V85.45ZM377.55,70h-2L371.37,83,367.09,70h-2l5.22,15.48h2Zm-15.83,0h-2V85.45h2Zm-5.55,1.81V70H345v1.81h4.61V85.45h2V71.78Zm-15.11,8.17h-5.48l2.73-8Zm3.91,5.5L339.49,70h-2.27l-5.46,15.48h2L335,81.78h6.73L343,85.45Zm-17.53-11c0,2-1.31,2.71-3.14,2.71h-4.13V71.76h4.13c1.83,0,3.14.76,3.14,2.73m2.07,11-3.1-6.81a4.47,4.47,0,0,0,1.86-1.09,4.15,4.15,0,0,0,1.18-3.06,4.38,4.38,0,0,0-1.22-3.14A5.22,5.22,0,0,0,324.29,70h-6.07V85.45h1.94V79h4.28l2.93,6.44ZM311,66.82l-1-1.55L306.34,68l.65,1Zm2.8,18.63V83.66h-8.41V78.31h7.38V76.47h-7.38V71.76h8.41V70H303.48V85.45ZM297.54,74.64c0,2.07-1,3-3.12,3h-3.78V71.74h3.76c1.92,0,3.14.94,3.14,2.9m2,0a4.73,4.73,0,0,0-1.18-3.28,5.11,5.11,0,0,0-3.93-1.4H288.7V85.45h1.94v-6h3.82a5.18,5.18,0,0,0,3.8-1.29,4.79,4.79,0,0,0,1.29-3.51m-17.29,3.08c0,1.62-.07,3.71-1.33,5a4,4,0,0,1-5.63,0c-1.27-1.31-1.33-3.41-1.33-5s.07-3.71,1.33-5a4,4,0,0,1,5.63,0c1.27,1.31,1.33,3.41,1.33,5m2,0c0-2.47-.31-4.74-2-6.37a6.07,6.07,0,0,0-8.34,0c-1.68,1.64-2,3.91-2,6.38s.31,4.74,2,6.38a6.07,6.07,0,0,0,8.34,0c1.68-1.64,2-3.91,2-6.38m-17.73,0c0,1.62-.07,3.71-1.33,5a4,4,0,0,1-5.63,0c-1.27-1.31-1.33-3.41-1.33-5s.07-3.71,1.33-5a4,4,0,0,1,5.63,0c1.27,1.31,1.33,3.41,1.33,5m2,0c0-2.47-.31-4.74-2-6.37a6.07,6.07,0,0,0-8.34,0c-1.68,1.64-2,3.91-2,6.38s.31,4.74,2,6.38a6.07,6.07,0,0,0,8.34,0c1.68-1.64,2-3.91,2-6.38m-15.44,2.79h-2a3.54,3.54,0,0,1-.85,2.23,3.83,3.83,0,0,1-2.82,1.18,3.93,3.93,0,0,1-2.82-1.18c-1.27-1.31-1.31-3.41-1.31-5s0-3.71,1.31-5a3.93,3.93,0,0,1,2.82-1.18,3.75,3.75,0,0,1,2.79,1.14,3.37,3.37,0,0,1,.85,2.16h2a5.28,5.28,0,0,0-1.53-3.54,5.9,5.9,0,0,0-4.13-1.59,6,6,0,0,0-4.19,1.66c-1.68,1.64-1.94,3.91-1.94,6.38s.26,4.74,1.94,6.38a6.07,6.07,0,0,0,8.34,0,5.39,5.39,0,0,0,1.53-3.58m-23.34-2.79c0,1.62-.07,3.71-1.33,5a4,4,0,0,1-5.63,0c-1.27-1.31-1.33-3.41-1.33-5s.07-3.71,1.33-5a4,4,0,0,1,5.63,0c1.27,1.31,1.33,3.41,1.33,5m2,0c0-2.47-.31-4.74-2-6.37a6.07,6.07,0,0,0-8.34,0c-1.68,1.64-2,3.91-2,6.38s.31,4.74,2,6.38a6.07,6.07,0,0,0,8.34,0c1.68-1.64,2-3.91,2-6.38m-14.3-5.94V70H206.29v1.81h4.61V85.45h2V71.78ZM202.3,77.72c0,1.62-.07,3.71-1.33,5a4,4,0,0,1-5.63,0c-1.27-1.31-1.33-3.41-1.33-5s.07-3.71,1.33-5a4,4,0,0,1,5.63,0c1.27,1.31,1.33,3.41,1.33,5m2,0c0-2.47-.31-4.74-2-6.37a6.07,6.07,0,0,0-8.34,0c-1.68,1.64-2,3.91-2,6.38s.31,4.74,2,6.38a6.07,6.07,0,0,0,8.34,0c1.68-1.64,2-3.91,2-6.38m-16.75,7.73V70h-1.94v6.46h-7.42V70h-1.94V85.45h1.94V78.31h7.42v7.14ZM170.31,74.64c0,2.07-1,3-3.12,3h-3.78V71.74h3.76c1.92,0,3.14.94,3.14,2.9m2,0a4.72,4.72,0,0,0-1.18-3.28,5.11,5.11,0,0,0-3.93-1.4h-5.74V85.45h1.94v-6h3.82a5.18,5.18,0,0,0,3.8-1.29,4.79,4.79,0,0,0,1.29-3.51M151,85.45V83.66h-8.41V78.31h7.38V76.47h-7.38V71.76H151V70H140.61V85.45Zm-14.5-4.93h-2a3.55,3.55,0,0,1-.85,2.23,3.83,3.83,0,0,1-2.82,1.18A3.93,3.93,0,0,1,128,82.74c-1.27-1.31-1.31-3.41-1.31-5s0-3.71,1.31-5a3.93,3.93,0,0,1,2.82-1.18,3.75,3.75,0,0,1,2.79,1.14,3.37,3.37,0,0,1,.85,2.16h2a5.29,5.29,0,0,0-1.53-3.54,5.9,5.9,0,0,0-4.13-1.59,6,6,0,0,0-4.19,1.66c-1.68,1.64-1.94,3.91-1.94,6.38s.26,4.74,1.94,6.38a6.07,6.07,0,0,0,8.34,0,5.39,5.39,0,0,0,1.53-3.58m-16.25,4.93V70h-1.88V82.46L110.74,70h-2.18V85.45h1.88V73L118,85.45Zm-16,0V83.66H95.77V78.31h7.38V76.47H95.77V71.76h8.41V70H93.82V85.45Zm-15.24,0V77.11H83v1.81h4.15a5.4,5.4,0,0,1-1.33,3.93A4,4,0,0,1,83,83.92a3.77,3.77,0,0,1-2.77-1.11c-1.29-1.31-1.4-3.54-1.4-5.09s.09-3.71,1.35-5A3.93,3.93,0,0,1,83,71.52a3.81,3.81,0,0,1,3,1.22,2.93,2.93,0,0,1,.7,1.7h2a4.65,4.65,0,0,0-1.33-3A6,6,0,0,0,83,69.68a5.93,5.93,0,0,0-4.17,1.66c-1.68,1.64-2,3.91-2,6.38,0,2.77.44,4.91,2,6.44A5.87,5.87,0,0,0,83,85.75a5,5,0,0,0,4.21-2.16l.33,1.86Zm-18.08-5.5H65.37l2.73-8Zm3.91,5.5L69.28,70H67L61.55,85.45h2l1.25-3.67h6.72l1.27,3.67Z"/></g></svg>